<svg xmlns="http://www.w3.org/2000/svg" width="24" height="20" fill="none" viewBox="0 0 24 20"><path fill="#1b1a1a" d="M24 2.307a9.9 9.9 0 0 1-2.828.776A4.93 4.93 0 0 0 23.336.359a9.9 9.9 0 0 1-3.126 1.196A4.91 4.91 0 0 0 16.617 0a4.923 4.923 0 0 0-4.926 4.923q.001.581.127 1.122A13.97 13.97 0 0 1 1.67.9a4.9 4.9 0 0 0-.666 2.476c0 1.709.87 3.215 2.188 4.098a4.9 4.9 0 0 1-2.23-.617v.063a4.926 4.926 0 0 0 3.95 4.827 4.9 4.9 0 0 1-2.222.085 4.93 4.93 0 0 0 4.597 3.42 9.87 9.87 0 0 1-6.113 2.106A10 10 0 0 1 0 17.289 13.95 13.95 0 0 0 7.547 19.5c9.056 0 14.01-7.501 14.01-14.007q-.001-.32-.014-.636c.962-.696 1.799-1.563 2.457-2.55"/></svg>