<svg xmlns="http://www.w3.org/2000/svg" width="117" height="102" fill="none" viewBox="0 0 117 102"><path fill="#403e3b" fill-rule="evenodd" d="M58.5 0C90.809 0 117 22.834 117 51c0 28.167-26.191 51-58.5 51S0 79.167 0 51C0 22.834 26.191 0 58.5 0m1.601 41.673-10.258.993c-2.278 8.605-3.99 13.735-8.549 18.369l2.249 1.957c5.37-5.228 6.977-11.227 8.898-17.753l6.477-.627 6.927 6.034-.72 5.642c-7.492 1.674-14.38 3.074-20.38 7.752l2.25 1.96c5.317-3.971 11.207-5.461 21.086-7.447l1.14-8.936zm-2.28 9.928c-.809-.73-2.007-1.023-3.134-.766-1.128.257-2.008 1.024-2.303 2.006s.041 2.026.88 2.731c1.269 1.05 3.265 1.026 4.501-.05 1.236-1.078 1.261-2.817.057-3.92m6.27-14.396a.89.89 0 0 0-.824-.169c-.29.084-.5.303-.543.566l-.342 2.086L71.5 47.63l2.376-.323c.3-.04.549-.224.643-.476a.64.64 0 0 0-.197-.715z" clip-rule="evenodd"/></svg>