<svg xmlns="http://www.w3.org/2000/svg" width="117" height="102" fill="none" viewBox="0 0 117 102"><path fill="#403e3b" fill-rule="evenodd" d="M58.5 0C90.809 0 117 22.834 117 51c0 28.167-26.191 51-58.5 51S0 79.167 0 51C0 22.834 26.191 0 58.5 0m2.422 39.105a.77.77 0 0 0-.62-.07l-13.11 4.087c-.536.167-.893.604-.892 1.093v15.46h-2.712V62h29.824v-2.325H70.7V48.89c0-.5-.373-.945-.927-1.103l-8.562-2.447V39.58a.56.56 0 0 0-.289-.476M58.5 42.07v17.605h-9.49V45.03zm2.711 5.72 6.778 1.937v9.948h-6.778z" clip-rule="evenodd"/></svg>