<svg xmlns="http://www.w3.org/2000/svg" width="117" height="102" fill="none" viewBox="0 0 117 102"><path fill="#403e3b" fill-rule="evenodd" d="M58.5 0C90.809 0 117 22.834 117 51c0 28.167-26.191 51-58.5 51S0 79.167 0 51C0 22.834 26.191 0 58.5 0m-7.392 37-6.373 7v21H57.48V44zm20.71 2.8H62.26c-.88 0-1.593.627-1.593 1.4v22.4c0 .773.713 1.4 1.593 1.4h9.559c.88 0 1.593-.627 1.593-1.4v-4.2h-3.187v-2.8h3.187v-2.8h-4.78V51h4.78v-2.8h-3.187v-2.8h3.187v-4.2c0-.773-.714-1.4-1.593-1.4M54.295 59.4v2.8h-6.372v-2.8z" clip-rule="evenodd"/></svg>