<svg xmlns="http://www.w3.org/2000/svg" width="128" height="78" fill="none" viewBox="0 0 128 78"><path fill="#fff" fill-rule="evenodd" d="M36.646 63.444q.673-.001 1.281.178a5.3 5.3 0 0 1 1.19.514v2.713c-.285-.25-.6-.46-.937-.637a2.3 2.3 0 0 0-1.085-.26q-.656 0-1.03.365c-.251.24-.375.583-.375 1.019 0 .387.105.718.32 1.002q.317.42.786.804.467.384 1.02.766.553.383 1.021.89.469.505.786 1.177.32.673.319 1.63c0 .62-.086 1.203-.263 1.737a3.7 3.7 0 0 1-2.07 2.322q-.757.336-1.733.336-.599 0-1.254-.179a3.4 3.4 0 0 1-1.145-.532V74.63q.487.339.996.544.503.205 1.124.205.672 0 1.142-.41.468-.413.468-1.124 0-.41-.152-.7a2 2 0 0 0-.383-.525 3.7 3.7 0 0 0-.523-.431q-.29-.196-.592-.402-.598-.41-1.084-.823a4.4 4.4 0 0 1-.826-.907 3.9 3.9 0 0 1-.514-1.095 4.7 4.7 0 0 1-.18-1.365q-.001-.843.245-1.591.242-.748.702-1.32.458-.568 1.154-.907.691-.336 1.592-.336m64.338 0a4.5 4.5 0 0 1 1.282.178q.608.178 1.19.514v2.713a5 5 0 0 0-.937-.637 2.3 2.3 0 0 0-1.085-.26c-.44 0-.781.121-1.032.365-.25.24-.373.583-.373 1.019 0 .387.104.718.318 1.002q.317.42.786.804.467.384 1.02.766.553.383 1.023.89.467.505.786 1.177.318.673.32 1.63c0 .62-.089 1.203-.265 1.737a3.7 3.7 0 0 1-2.069 2.322q-.76.336-1.733.336-.6 0-1.257-.179a3.5 3.5 0 0 1-1.142-.532V74.63q.487.339.994.544.506.205 1.125.205.672 0 1.141-.41.468-.413.468-1.124a1.5 1.5 0 0 0-.148-.7 2.1 2.1 0 0 0-.385-.525 3.6 3.6 0 0 0-.524-.431q-.29-.196-.59-.402a14 14 0 0 1-1.087-.823 4.5 4.5 0 0 1-.824-.907 3.8 3.8 0 0 1-.514-1.095 4.7 4.7 0 0 1-.18-1.365q-.001-.843.244-1.591a4.1 4.1 0 0 1 .703-1.32q.457-.568 1.152-.907.692-.336 1.593-.336m-51.897 0q1.609 0 2.66.927 1.048.926 1.498 2.422l-2.719 1.047q-.054-.26-.13-.578a2 2 0 0 0-.234-.59 1.6 1.6 0 0 0-.411-.46q-.255-.185-.647-.186a1.27 1.27 0 0 0-.808.225q-.334.242-.569.654-.233.413-.377.935-.138.524-.213 1.048t-.095 1.01c-.012.327-.017.599-.017.825q0 .543.047 1.348a7.3 7.3 0 0 0 .253 1.551q.204.749.646 1.272.44.524 1.209.525.523 0 .853-.31.326-.308.504-.757.18-.45.235-.945.057-.496.057-.87h-1.782v-2.62h4.573v1.104q0 1.124-.177 2.358a7.8 7.8 0 0 1-.667 2.255 4.54 4.54 0 0 1-1.378 1.692q-.889.674-2.311.673-.957 0-1.697-.317a4.3 4.3 0 0 1-1.302-.862 5 5 0 0 1-.946-1.253 8 8 0 0 1-.629-1.515 11 11 0 0 1-.356-1.637 12 12 0 0 1-.112-1.618q-.001-1.215.227-2.516.224-1.301.793-2.376a5.05 5.05 0 0 1 1.548-1.77q.973-.69 2.474-.69m65.422.225v2.618h-2.829v3.07h2.494v2.618h-2.494v3.181h2.868v2.62h-5.659V63.67zm-111.7.001q.674 0 1.528.092a4.7 4.7 0 0 1 1.619.486q.77.393 1.292 1.208.525.813.526 2.253 0 1.18-.476 2.126-.479.943-1.529 1.524l2.456 6.417H5.283l-2.456-6.512H2.79v6.512H0V63.67zm20.683 0v6.304h.036l2.327-6.305h2.846l-2.604 6.51 2.941 7.598h-2.941l-2.569-7.187h-.036v7.187h-2.791V63.669zm37.415 0q.674 0 1.529.092a4.7 4.7 0 0 1 1.618.486q.77.393 1.293 1.208.525.813.526 2.253 0 1.18-.478 2.126-.478.943-1.527 1.524l2.454 6.417h-2.94l-2.456-6.512h-.038v6.512h-2.79V63.67zm15.495 0 3.39 14.106h-2.979l-.523-2.377h-2.83l-.506 2.377h-2.772L73.46 63.67zm45.509 0 3.486 8.512.036-.036a6 6 0 0 1-.179-1.05q-.046-.541-.047-1.084V63.67H128v14.105h-2.641l-3.448-8.512-.038.038.131 1.42.019.58v6.474h-2.793V63.67zm-106.193 0v14.106h-2.793V63.67zm70.877 0 3.486 8.512.036-.036a6 6 0 0 1-.179-1.05 12 12 0 0 1-.047-1.084V63.67h2.793v14.105h-2.641l-3.448-8.512-.038.038.131 1.42.02.58v6.474h-2.794V63.67zm-11.749 3.628h-.036l-.303 2.133-.596 3.761h1.965l-.712-3.76zm-71.479-1.33-.203.003H2.79v3.759l.488.019q.956 0 1.369-.57.41-.57.41-1.451 0-.373-.092-.711a1.4 1.4 0 0 0-.318-.578 1.4 1.4 0 0 0-.592-.367 2.6 2.6 0 0 0-.89-.101zm58.1 0-.202.003h-.377v3.759l.488.019q.955 0 1.368-.57.412-.57.412-1.451.001-.373-.094-.711a1.4 1.4 0 0 0-.318-.578 1.4 1.4 0 0 0-.592-.367 2.6 2.6 0 0 0-.887-.101zm11.6-6.135q.58 0 .974.42.393.422.392 1.003 0 .56-.41.963a1.38 1.38 0 0 1-.995.402 1.35 1.35 0 0 1-.973-.402 1.3 1.3 0 0 1-.411-.963q0-.6.411-1.012.414-.41 1.011-.41m3.899 0c.386 0 .712.141.97.42q.396.422.395 1.003 0 .56-.413.963a1.36 1.36 0 0 1-.99.402q-.564 0-.977-.402a1.3 1.3 0 0 1-.412-.963c0-.4.14-.738.412-1.012q.414-.41 1.015-.41M65.488 0c18.994 0 34.323 15.218 34.43 34.184a34.25 34.25 0 0 1-3.525 15.37l-4.97-3.902-3.162 2.563c-.257.21-.588.304-.92.266l-4.706-.549q-.035-.005-.068-.008a1.23 1.23 0 0 0-.745.198l-3.964 2.569a1.233 1.233 0 0 1-1.706-.367L73.97 46.94l-1.997 1.677 5.2 4.72.02.02c.606.57.644 1.521.082 2.137a1.53 1.53 0 0 1-2.157.107q-.002 0-.002-.002l-1.88-1.707-3.108 1.53-.015.008a1.23 1.23 0 0 1-1.417-.257l-.01-.01-1.667-1.77a1.24 1.24 0 0 0-1.371-.29l-3.566 1.483c-.459.19-.988.085-1.342-.265l-3.311-3.289a1.24 1.24 0 0 0-1.362-.257L52.27 52.43c-.411.177-.89.118-1.245-.154l-3.127-2.41a1.23 1.23 0 0 0-1.53.015l-3.031 2.453a1.235 1.235 0 0 1-1.735-.183l-3.012-3.72-3.252 2.555a34 34 0 0 1-1.388-2.797A34.2 34.2 0 0 1 31.06 34.38C31.06 15.393 46.475 0 65.488 0M53.941 36.38 40.994 46.544l1.06 1.31.015.017c.429.51 1.186.588 1.71.173l.01-.008 2.536-2.05a1.234 1.234 0 0 1 1.529-.016l3.606 2.785a1.24 1.24 0 0 0 1.247.154l4.046-1.76a1.23 1.23 0 0 1 1.36.256l3.335 3.312c.354.352.883.455 1.342.265l3.633-1.512a1.24 1.24 0 0 1 1.365.287l.006.006 1.567 1.662q.006.008.013.013c.373.382.948.483 1.428.247l-10.21-9.269-2.645-2.4zm29.26 2.81-6.87 5.768.731 1.135a1.23 1.23 0 0 0 1.706.365l2.314-1.5.034-.02c.215-.13.462-.189.708-.175l.074.005 4.52.53c.33.04.66-.058.92-.266l1.624-1.315zM65.488 24.972c-5.127 0-9.314 4.114-9.419 9.212l4.172 3.785 2.174 1.974 4.166 3.783c4.684-.542 8.332-4.525 8.332-9.345 0-5.188-4.23-9.41-9.425-9.41m-12.025 7.883H47.42a1.53 1.53 0 0 0-1.53 1.526 1.53 1.53 0 0 0 1.53 1.527h2.17l3.872-3.036zm30.094 0h-4.51a1.528 1.528 0 1 0 0 3.053h4.51a1.526 1.526 0 1 0 0-3.053m-4.212-12.311a1.53 1.53 0 0 0-2.16 0l-3.194 3.184a1.53 1.53 0 0 0 0 2.16c.6.597 1.567.597 2.165.002l3.191-3.188a1.524 1.524 0 0 0 0-2.157zm-25.55.002a1.528 1.528 0 0 0-2.164 2.156l3.191 3.186a1.53 1.53 0 0 0 2.163 0 1.53 1.53 0 0 0 0-2.16zm11.693-5.733c-.843 0-1.529.683-1.529 1.527v4.502c0 .424.173.804.45 1.08a1.528 1.528 0 0 0 2.608-1.08V16.34c0-.844-.684-1.527-1.529-1.527" clip-rule="evenodd"/></svg>