<svg xmlns="http://www.w3.org/2000/svg" width="220" height="19" fill="none" viewBox="0 0 220 19"><path fill="#1b1a1a" fill-rule="evenodd" d="M34.412 5.122q2.262 0 3.646 1.159 1.383 1.158 1.48 3.158h-2.744q-.072-.902-.722-1.439-.65-.536-1.757-.536-1.082 0-1.66.414-.578.415-.578 1.098 0 .537.386.902.384.366.938.573.553.208 1.636.525 1.444.39 2.37.792a4.4 4.4 0 0 1 1.601 1.183q.675.78.698 2.073a3.5 3.5 0 0 1-.626 2.05q-.625.9-1.768 1.414-1.143.512-2.684.512-1.563-.002-2.803-.573-1.239-.573-1.962-1.561a3.92 3.92 0 0 1-.77-2.207h2.84q.072.853.806 1.426.735.574 1.841.574 1.155 0 1.793-.452.638-.45.638-1.158 0-.756-.71-1.122t-2.25-.805q-1.492-.415-2.43-.805a4.26 4.26 0 0 1-1.625-1.195Q29.31 10.317 29.31 9q0-1.073.626-1.963.625-.89 1.793-1.403 1.167-.512 2.683-.512m70.606 0q1.878 0 3.345.83a5.8 5.8 0 0 1 2.286 2.329q.819 1.5.819 3.45 0 .757-.097 1.367H101.24q.118 1.61 1.179 2.585 1.059.975 2.599.976 2.214 0 3.129-1.878h2.96a6.05 6.05 0 0 1-2.178 3.036Q107.352 19 105.018 19q-1.9 0-3.405-.866a6.1 6.1 0 0 1-2.358-2.439q-.855-1.573-.855-3.646t.83-3.646a5.9 5.9 0 0 1 2.335-2.427q1.505-.855 3.453-.854m-28.397 0q1.902 0 3.442.853a6.2 6.2 0 0 1 2.43 2.44q.89 1.584.89 3.634 0 2.048-.914 3.634a6.37 6.37 0 0 1-2.49 2.45Q78.401 19 76.5 19q-1.878 0-3.393-.866a6.2 6.2 0 0 1-2.383-2.44q-.866-1.572-.866-3.645 0-2.05.89-3.635a6.2 6.2 0 0 1 2.43-2.439q1.542-.853 3.442-.853m137.892-.073q2.382 0 3.802 1.207t1.565 3.256h-3.225q-.074-.805-.662-1.28-.59-.477-1.576-.476-.916 0-1.408.341a1.09 1.09 0 0 0-.493.952q0 .682.674 1.036.672.354 2.093.72 1.444.366 2.383.756.938.39 1.624 1.207.684.817.71 2.159 0 1.17-.638 2.097t-1.829 1.451q-1.19.525-2.779.525-1.637 0-2.936-.598-1.3-.597-2.058-1.622a4.15 4.15 0 0 1-.83-2.268h3.393q.095.78.758 1.293.662.512 1.649.512.959 0 1.504-.39.541-.39.541-1-.001-.66-.662-.988-.662-.33-2.105-.72-1.494-.366-2.443-.756a4.24 4.24 0 0 1-1.636-1.195q-.686-.805-.686-2.17-.002-1.123.638-2.05.638-.926 1.827-1.463 1.193-.536 2.805-.536m-68.273 0q1.493 0 2.613.61 1.12.609 1.791 1.536V5.268h3.395V18.78h-3.395v-1.976q-.649.952-1.791 1.574-1.145.621-2.637.622a5.6 5.6 0 0 1-3.068-.878q-1.383-.879-2.19-2.476-.804-1.598-.804-3.67 0-2.05.804-3.635.807-1.586 2.19-2.439 1.385-.853 3.092-.853M58.14.732v6.61q.698-.977 1.913-1.598t2.707-.622q1.757 0 3.177.853 1.419.855 2.238 2.427.818 1.573.818 3.598t-.818 3.622-2.25 2.487q-1.433.89-3.165.89-1.54 0-2.731-.61-1.191-.609-1.89-1.56v1.951h-2.743V.732zm135.173 4.316q1.9 0 3.403.83a5.8 5.8 0 0 1 2.335 2.353q.831 1.524.83 3.5.002.732-.096 1.317h-9.747q.12 1.464 1.011 2.293.889.83 2.192.829 1.876 0 2.671-1.634h3.632q-.575 1.95-2.212 3.207-1.638 1.258-4.019 1.256-1.929 0-3.455-.866a6.04 6.04 0 0 1-2.381-2.45q-.854-1.586-.854-3.66 0-2.094.842-3.682a5.9 5.9 0 0 1 2.359-2.44q1.515-.851 3.489-.853M2.91 1.83l3.467 13.805L10.13 1.829h3.083l3.487 13.732 3.492-13.732h2.934L18.169 18.78h-3.104L11.55 5.951 7.82 18.781l-3.08.024L0 1.829zM208.35 5.073V8.66h-.891c-1.057 0-1.857.252-2.392.756q-.809.756-.808 2.634v6.732h-3.368V5.268h3.368v2.097a4.76 4.76 0 0 1 1.696-1.683q1.048-.61 2.395-.61m-117.002.049q1.564 0 2.804.659 1.24.658 1.937 1.95.698 1.294.698 3.123v7.926h-2.72v-7.512q0-1.805-.89-2.768-.891-.963-2.43-.963-1.541 0-2.443.963t-.903 2.768v7.512H84.66V5.342h2.743v1.536a4.55 4.55 0 0 1 1.721-1.293 5.4 5.4 0 0 1 2.226-.463m71.519-.049V8.66h-.89q-1.587 0-2.393.756-.808.756-.808 2.634v6.732h-3.367V5.268h3.367v2.097a4.77 4.77 0 0 1 1.697-1.683q1.048-.61 2.394-.61M44.448.732v6.17a4.6 4.6 0 0 1 1.768-1.317 5.85 5.85 0 0 1 2.347-.463q1.516 0 2.707.659 1.191.658 1.877 1.95.686 1.294.686 3.123v7.926h-2.72v-7.512q0-1.805-.89-2.768t-2.43-.963-2.443.963-.903 2.768v7.512h-2.743V.732zm-17.28 4.61V18.78h-2.742V5.341zm106.847-3.586q1.95 0 3.321.683 1.373.683 2.058 1.878t.684 2.707q0 1.365-.636 2.561-.638 1.195-1.997 1.927-1.36.73-3.43.731H131.2v6.537h-3.369V1.756zm34.559.17v3.342h2.984v2.805h-2.984v6.536q0 .684.325.988.324.306 1.095.305h1.564v2.878h-2.118q-4.26 0-4.259-4.195V8.073h-1.589V5.268h1.589V1.927zm11.838 3.147q2.384 0 3.851 1.524t1.468 4.256v7.927h-3.367v-7.463q-.001-1.61-.797-2.476-.792-.866-2.165-.866-1.397 0-2.2.866-.81.865-.809 2.476v7.463h-3.369V5.268h3.369v1.683a4.66 4.66 0 0 1 1.723-1.378 5.25 5.25 0 0 1 2.296-.5M62.159 7.536q-1.035 0-1.962.537-.926.537-1.492 1.56-.565 1.026-.565 2.416t.565 2.426q.566 1.037 1.492 1.573a3.85 3.85 0 0 0 3.947-.012q.927-.549 1.492-1.597.566-1.049.566-2.44 0-1.39-.566-2.402-.565-1.012-1.492-1.536a3.97 3.97 0 0 0-1.985-.525m14.414 0q-1.06 0-1.961.513-.903.512-1.432 1.524-.53 1.012-.53 2.476 0 2.17 1.095 3.353t2.756 1.183a4.04 4.04 0 0 0 1.985-.512q.927-.513 1.504-1.537.578-1.024.578-2.487t-.554-2.476q-.553-1.013-1.468-1.524a4 4 0 0 0-1.973-.513m44.52-3.658V8.61h4.546v2.975h-4.546v4.732h-3.177v-4.732h-4.548V8.61h4.548V3.878zm26.015 4.17q-.94 0-1.734.464-.794.463-1.286 1.354-.493.89-.493 2.11t.493 2.133q.492.915 1.298 1.403a3.27 3.27 0 0 0 1.722.488q.936 0 1.757-.476a3.43 3.43 0 0 0 1.298-1.366q.48-.89.481-2.134 0-1.244-.481-2.134a3.43 3.43 0 0 0-3.055-1.841m-42.21-.584q-1.42 0-2.431.914-1.011.915-1.203 2.476h7.34q-.024-1.537-1.083-2.464-1.06-.926-2.623-.926m88.317.39q-1.252 0-2.106.767-.855.77-1.045 2.134h6.327q-.024-1.316-.938-2.11-.913-.792-2.238-.792m-59.344-3.318H131.2v4.951h2.671q1.393 0 2.07-.646.673-.645.673-1.817 0-2.487-2.743-2.488M25.821 0q.722 0 1.228.512.505.513.505 1.268 0 .756-.505 1.269a1.66 1.66 0 0 1-1.228.512q-.745 0-1.251-.512t-.506-1.269.506-1.268A1.69 1.69 0 0 1 25.82 0" clip-rule="evenodd"/></svg>